<svg width="24" height="26" viewBox="0 0 24 26" fill="none" xmlns="http://www.w3.org/2000/svg">
<mask id="mask0_246_263" style="mask-type:alpha" maskUnits="userSpaceOnUse" x="0" y="0" width="24" height="26">
<g clip-path="url(#clip0_246_263)">
<path fill-rule="evenodd" clip-rule="evenodd" d="M6.77083 3.3645C5.08857 3.3645 3.56734 3.78495 2.46319 4.81023C1.34856 5.84525 0.78125 7.38226 0.78125 9.35408V16.6458C0.78125 18.6176 1.34856 20.1546 2.46319 21.1896C3.56734 22.2149 5.08857 22.6353 6.77083 22.6353H17.1875C18.8698 22.6353 20.391 22.2149 21.4951 21.1896C22.6098 20.1546 23.1771 18.6176 23.1771 16.6458V9.35408C23.1771 7.38226 22.6098 5.84525 21.4951 4.81023C20.391 3.78495 18.8698 3.3645 17.1875 3.3645H6.77083ZM19.5089 9.21065C19.8502 8.94683 19.9131 8.45619 19.6493 8.11477C19.3855 7.77334 18.8949 7.71044 18.5534 7.97426L12.7752 12.4391C12.3064 12.8015 11.6519 12.8015 11.1829 12.4391L5.40479 7.97426C5.06336 7.71044 4.57273 7.77334 4.30891 8.11477C4.04508 8.45619 4.10799 8.94683 4.44942 9.21065L10.2276 13.6755C11.2593 14.4726 12.699 14.4726 13.7306 13.6755L19.5089 9.21065Z" fill="black"/>
</g>
</mask>
<g mask="url(#mask0_246_263)">
<ellipse cx="12.3656" cy="13.8064" rx="17.7755" ry="16.5323" fill="#68594C"/>
</g>
<defs>
<clipPath id="clip0_246_263">
<rect width="23.9583" height="25" fill="white" transform="translate(0 0.5)"/>
</clipPath>
</defs>
</svg>
