<svg width="33" height="31" viewBox="0 0 33 31" fill="none" xmlns="http://www.w3.org/2000/svg">
<path d="M18.1026 0.871946C18.0133 0.852154 17.9286 0.846763 17.8471 0.848182C17.6829 0.777242 17.4952 0.744042 17.2852 0.773624C11.1877 1.63455 5.53215 4.02038 0.444656 7.4562C-0.287865 7.95079 -0.0212748 8.93458 0.566388 9.23281C0.639314 9.38774 0.756435 9.53139 0.935983 9.64419C2.6984 10.7551 4.56099 11.5894 6.48636 12.2289C6.46061 12.3553 6.44366 12.4857 6.44337 12.628C6.44337 12.6417 6.44699 12.6543 6.44735 12.6676C6.39691 12.7725 6.3586 12.8881 6.34526 13.021C6.15671 14.8856 6.06484 16.7479 6.14862 18.6214C6.176 19.2363 6.65726 19.5509 7.13652 19.5671C8.27141 20.1304 9.44454 20.5779 10.6381 20.9172C10.7426 22.3289 10.8436 23.7411 10.9385 25.1535C9.53343 25.8977 8.81701 27.1899 9.1019 28.7457C9.10729 29.0789 9.28365 29.3992 9.5828 29.5905C10.3084 30.0541 11.1801 30.3162 12.0439 30.2158C12.052 30.2147 12.0598 30.2122 12.068 30.2111C12.1786 30.2205 12.2919 30.214 12.4032 30.1805C13.3183 29.9064 14.1572 29.344 14.5625 28.4517C14.636 28.2904 14.6728 28.121 14.6763 27.9557C14.7519 27.8207 14.7991 27.6592 14.7949 27.4647C14.7791 26.7054 14.5412 25.9647 13.967 25.4431C13.6523 25.1571 13.2797 24.9727 12.8833 24.8595C12.8042 23.6967 12.7224 22.5343 12.6372 21.3718C17.477 22.236 22.5364 21.352 26.8857 18.7817C27.0968 18.6571 27.2279 18.4925 27.2978 18.3131C27.4603 18.1557 27.5691 17.9327 27.5691 17.6384C27.5691 15.9672 27.5763 14.2965 27.6675 12.6272C27.6729 12.5231 27.6639 12.4283 27.6441 12.3419C27.6588 12.2748 27.6675 12.2064 27.6675 12.1358V11.6445C27.6675 11.6193 27.6617 11.5947 27.6595 11.5696C29.2269 10.9403 30.7698 10.2309 32.2903 9.44669C32.572 9.30155 32.7211 9.08646 32.7687 8.85484C33.0575 8.50653 33.1246 8.00073 32.6854 7.60886C28.5783 3.9454 23.4073 2.0477 18.1026 0.871946ZM8.09626 17.8556C8.06455 16.2494 8.14635 14.6493 8.30752 13.048C8.34625 12.9681 8.37506 12.8834 8.39052 12.7937C8.94747 12.9407 9.50973 13.0689 10.0741 13.1896C10.2047 15.07 10.3426 16.9497 10.4831 18.8297C9.67282 18.5624 8.87419 18.2426 8.09626 17.8556ZM12.6894 26.9446C12.7105 26.9771 12.7305 27.0098 12.7488 27.0437C12.7418 27.0461 12.803 27.1953 12.809 27.2166C12.8146 27.2468 12.8189 27.2692 12.8223 27.2851C12.8267 27.3449 12.8301 27.405 12.8301 27.4652C12.8304 27.4824 12.8347 27.4968 12.8359 27.5139C12.784 27.62 12.7281 27.7223 12.6629 27.8214C12.6544 27.8308 12.6467 27.8398 12.6337 27.855C12.5836 27.9112 12.5264 27.9605 12.47 28.0099C12.4604 28.0164 12.4534 28.0214 12.4404 28.0304C12.3696 28.0794 12.2936 28.1202 12.2179 28.1612C12.2049 28.1681 12.1268 28.2015 12.0852 28.2196C12.049 28.2325 12.0121 28.2441 11.9752 28.2556C11.6118 28.288 11.2986 28.2401 10.9878 28.11C10.9597 27.5038 11.3563 27.1508 11.9498 26.8403C12.0268 26.7999 12.0899 26.7527 12.1475 26.703C12.2014 26.7134 12.2933 26.7278 12.2992 26.7293C12.3113 26.7322 12.4231 26.7728 12.4629 26.784C12.5208 26.8196 12.6027 26.8715 12.6207 26.8776C12.6467 26.9032 12.6746 26.932 12.6894 26.9446ZM25.702 12.628C25.6184 14.1662 25.6061 15.705 25.6047 17.2451C21.5882 19.5267 16.9167 20.2832 12.4884 19.3696C12.3438 17.4349 12.2015 15.5001 12.0657 13.5649C13.8766 13.8621 15.7125 14.0556 17.5504 14.1928C17.639 14.2076 17.7337 14.2141 17.8414 14.2008C20.5619 13.8492 23.1779 13.1921 25.719 12.3031C25.7251 12.3366 25.7345 12.369 25.7438 12.4018C25.7225 12.4717 25.7063 12.5459 25.702 12.628ZM17.8414 12.2353C17.8115 12.2393 17.7855 12.249 17.7567 12.2548C17.7197 12.2483 17.6843 12.2382 17.6447 12.2353C15.9515 12.1107 14.2617 11.9378 12.5947 11.6734C14.0568 10.3265 15.5424 9.00594 17.0619 7.72243C18.0313 6.90365 16.6339 5.52068 15.6723 6.33301C13.8744 7.85176 12.1136 9.41186 10.3969 11.0214C10.3099 11.0697 10.2347 11.1345 10.1702 11.2112C7.54698 10.6244 5.00805 9.744 2.63796 8.37196C7.17597 5.51033 12.1166 3.53303 17.4513 2.72496C17.4934 2.73971 17.533 2.75667 17.5802 2.76752C22.148 3.77976 26.6702 5.30531 30.3629 8.22249C26.4 10.1781 22.2492 11.6655 17.8414 12.2353Z" fill="black"/>
</svg>
