<svg width="26" height="26" viewBox="0 0 26 26" fill="none" xmlns="http://www.w3.org/2000/svg">
<g clip-path="url(#clip0_246_254)">
<path fill-rule="evenodd" clip-rule="evenodd" d="M10.385 16.3619V9.06649C12.9748 10.2852 14.9807 11.4624 17.353 12.7316C15.3963 13.8168 12.9748 15.0343 10.385 16.3619ZM24.8183 5.43817C24.3716 4.84958 23.6101 4.39142 22.7995 4.23973C20.4168 3.78727 5.55228 3.78598 3.1709 4.23973C2.52084 4.3616 1.94199 4.65615 1.44473 5.11381C-0.650471 7.05848 0.00606603 17.4871 0.511091 19.1764C0.723459 19.9076 0.997997 20.4349 1.34374 20.7811C1.7892 21.2387 2.39911 21.5538 3.09967 21.6952C5.06149 22.1009 15.1684 22.3278 22.7581 21.7561C23.4573 21.6342 24.0763 21.309 24.5645 20.8319C26.5017 18.895 26.3696 7.88068 24.8183 5.43817Z" fill="#68594C"/>
</g>
<defs>
<clipPath id="clip0_246_254">
<rect width="26" height="26" fill="white"/>
</clipPath>
</defs>
</svg>
